<svg width="158" height="168" viewBox="0 0 158 168" fill="none" xmlns="http://www.w3.org/2000/svg">
<path d="M68.7335 2.86667C62.3335 6.86667 60.7335 16.0667 65.0001 24.2L67.0001 28.0667L60.8668 31C57.5335 32.6 50.4668 38.2 45.0001 43.5333C36.7335 51.6667 35.0001 54.0667 33.0001 60.7333C29.6668 72.2 32.2001 82.2 42.0668 96.0667C46.0668 101.667 46.2001 101.933 44.4668 108.067C40.3335 122.6 41.5335 126.333 51.2668 127.8C54.0668 128.333 56.3335 129.133 56.3335 129.533C56.3335 131.667 43.2668 133.667 30.2001 133.667C13.9335 133.667 10.6001 134.867 4.60013 143.133L0.466797 148.733L5.6668 156.467C8.60013 160.733 12.3335 165.133 13.8001 166.2C16.3335 167.933 17.0001 167.933 19.8001 166.067C21.6668 164.867 30.7335 163 40.7335 161.667C62.2001 158.733 67.8001 157.267 74.2001 153L79.2668 149.533L83.5335 152.333C91.1335 157 99.1335 159.133 118.067 161.667C130.733 163.267 137.267 164.733 139 166.333C140.867 168.067 142.067 168.2 144.2 167.133C146.733 165.667 157.667 151 157.667 148.867C157.667 146.867 150.467 138.6 146.467 136.2C143.133 134.2 139.8 133.667 128.733 133.667C115.267 133.667 101.667 131.533 101.667 129.4C101.667 128.867 103.133 128.333 105 128.333C109.667 128.333 115.933 124.867 116.867 121.933C117.267 120.733 116.467 115.533 115 110.467L112.467 101.4L117.667 93.8C130.6 74.7333 129.8 59.5333 114.867 44.4667C109.267 38.8667 98.2001 31 93.4001 29.2667C91.4001 28.6 91.5335 28.0667 93.9335 23.1333C97.4001 16.2 96.3335 9.40001 91.0001 4.06668C87.8001 0.866669 86.2001 0.333344 80.0668 0.333344C75.4001 0.333344 71.5335 1.26668 68.7335 2.86667ZM83.5335 11.8C86.0668 14.2 86.2001 15.5333 84.3335 19.1333C81.6668 24.0667 73.6668 21.5333 73.6668 15.6667C73.6668 10.0667 79.5335 7.8 83.5335 11.8ZM83.2668 52.6C82.8668 57.5333 82.8668 57.6667 87.5335 57.6667C92.0668 57.6667 92.3335 57.9333 92.3335 62.2C92.3335 66.4667 91.9335 66.8667 88.0668 67.2667C83.9335 67.6667 83.6668 68.0667 83.6668 72.7333C83.6668 77.4 83.4001 77.6667 79.4001 77.6667C75.1335 77.6667 75.0001 77.4 75.0001 72.3333C75.0001 67.4 74.7335 67 71.1335 67C67.9335 67 67.2668 66.3333 66.7335 63C66.0668 58.2 66.3335 57.6667 71.2668 57.6667C74.7335 57.6667 75.0001 57.2667 75.0001 52.2C75.0001 47 75.1335 46.8667 79.4001 47.2667C83.5335 47.6667 83.6668 47.9333 83.2668 52.6ZM102.6 93.1333C103 94.3333 102.6 95.8 101.533 96.4667C99.4001 97.9333 57.0001 97.5333 55.6668 96.0667C55.1335 95.5333 55.0001 94.2 55.4001 93C56.7335 89.9333 101.4 89.9333 102.6 93.1333ZM100.867 106.467C103.667 107.533 103.533 110.467 100.733 111.667C99.4001 112.2 90.7335 112.867 81.5335 113.267C60.6001 114.2 49.8001 111.4 57.4001 107.133C59.8001 105.667 97.4001 105.133 100.867 106.467Z" fill="black"/>
</svg>
