<svg width="157" height="169" viewBox="0 0 157 169" fill="none" xmlns="http://www.w3.org/2000/svg">
<path d="M72.5333 1.33337C66 3.33337 62.2666 8.40004 62.2666 15.2C62.2666 18.5334 63.2 22.6667 64.5333 24.6667C65.8666 26.6667 66.6666 28.2667 66.4 28.4C42 40.5334 28.6666 57.7334 31.4666 73.8667C32.5333 80.4 37.2 90 42.1333 95.8667L45.6 100.133L43.4666 108.667C42.2666 113.333 41.3333 118.4 41.3333 119.867C41.3333 123.733 44.8 126.533 51.7333 128.267L58 129.867L51.3333 131.733C47.4666 132.8 38.9333 133.6 30.8 133.467C14.9333 133.467 12 134.533 4.79997 142.8L0.133301 148.267L5.19997 155.867C7.99997 160 11.6 164.533 13.2 165.867C15.7333 168.267 16.1333 168.267 18.4 166.267C19.8666 164.933 26.5333 163.467 38 162C58.2666 159.467 66.6666 157.2 73.6 152.667L78.5333 149.333L83.3333 152.133C90.4 156.4 99.0666 158.667 117.733 161.333C128.133 162.8 136.133 164.667 138.267 166.133L141.867 168.4L147.2 162.4C150.267 159.067 153.733 154.533 154.933 152.4C157.2 148.4 157.2 148.267 153.467 143.067C147.733 135.2 142.667 133.333 127.733 133.6C114.4 134 98.4 131.067 103.333 129.2C104.8 128.667 108 127.467 110.4 126.667C117.067 124.133 117.6 121.733 114.533 110.667L111.733 100.933L114.533 97.4667C120.267 90.1334 124.267 82.2667 125.733 75.3334C126.933 69.2 126.8 66.9334 124.8 60.4C121.2 48.9334 108.8 37.3334 90.9333 28.4C90.6666 28.2667 91.3333 26.8 92.4 25.0667C99.0666 14.4 93.4666 2.13336 81.2 0.666702C78.6666 0.40004 74.8 0.666702 72.5333 1.33337ZM84 12C85.4666 13.4667 86.6666 15.6 86.6666 16.6667C86.6666 19.4667 81.8666 24 78.9333 24C74.9333 24 71.7333 20.6667 71.7333 16.6667C71.7333 9.8667 79.0666 7.0667 84 12ZM87.3333 35.8667C95.7333 39.7334 108.933 50.1334 112.8 56C119.467 66.1334 117.867 80.9334 109.467 85.8667C101.067 90.6667 59.0666 91.2 48.9333 86.5334C41.4666 83.0667 37.8666 69.4667 42.1333 60.5334C47.3333 49.4667 69.0666 33.3334 78.5333 33.3334C80.4 33.3334 84.4 34.5334 87.3333 35.8667ZM104.267 101.333L103.733 106H78.6666H53.6L53.0666 101.333L52.6666 96.6667H78.6666H104.667L104.267 101.333ZM103.867 114.667C107.6 116.533 107.467 119.467 103.733 120.4C97.8666 121.867 67.0666 123.067 59.4666 122.133C51.7333 121.067 48.8 118.667 51.8666 115.6C55.2 112.267 97.8666 111.333 103.867 114.667ZM87.4666 132.667C96.4 139.067 103.2 140.933 122.667 142.533C137.067 143.733 139.6 144.267 141.6 146.8C143.467 148.933 143.6 150.133 142.533 152.267C141.2 154.667 140.267 154.8 130.933 154C104 151.733 88.4 147.467 82.1333 140.667L78.9333 137.2L75.4666 140.667C70.9333 145.2 62.6666 148.8 52.6666 150.533C38.2666 152.933 17.6 154.933 16.1333 154C15.3333 153.6 14.6666 151.733 14.6666 149.867C14.6666 145.067 20.4 143.2 37.3333 142.267C54.8 141.2 60.1333 139.733 69.3333 133.2C73.3333 130.4 77.6 128 78.8 128C79.8666 128 83.8666 130.133 87.4666 132.667Z" fill="black"/>
<path d="M74.4003 52.9334C74.0003 57.3334 73.467 58.0001 70.4003 58.4001C67.067 58.8001 66.667 59.4667 66.667 63.4667C66.667 67.6001 66.9337 68.0001 70.667 68.0001C74.4003 68.0001 74.667 68.2667 74.667 73.3334C74.667 78.4001 74.9337 78.6667 78.667 78.6667C82.4003 78.6667 82.667 78.4001 82.667 73.4667C82.667 68.5334 82.9337 68.1334 87.067 67.7334C90.8003 67.3334 91.3337 66.8001 91.7337 63.0667C92.1337 59.2001 91.867 58.8001 87.7337 58.4001C83.7337 58.0001 83.3337 57.6001 82.9337 52.9334C82.5337 48.5334 82.1337 48.0001 78.667 48.0001C75.2003 48.0001 74.8003 48.5334 74.4003 52.9334Z" fill="black"/>
</svg>
