<svg width="147" height="161" viewBox="0 0 147 161" fill="none" xmlns="http://www.w3.org/2000/svg">
<path d="M68.0002 5.20004C66.6669 9.46672 66.0002 10 61.8669 10C57.6002 10 57.3335 10.2667 57.3335 14.5334C57.3335 18.5334 58.0002 19.6001 62.6669 22.1334C65.6002 23.8667 68.0002 26.1334 68.0002 27.2C68.0002 28.2667 65.2002 32.1334 61.7335 35.6C56.1335 41.2 55.4669 42.6667 54.9335 49.3334C54.6669 53.3334 54.1335 56.6667 53.7335 56.6667C53.4669 56.6667 51.4669 55.4667 49.4669 53.8667C40.8002 47.4667 25.0669 46.5334 14.6669 52C9.33354 54.8 3.06687 62.5334 1.46687 68.2667C-1.59979 79.2 0.266875 85.6001 11.6002 102.933C20.0002 115.6 22.2669 121.733 23.4669 135.733C24.8002 150.4 27.6002 153.733 41.8669 157.467C58.2669 161.867 96.5335 160.933 110.8 156C120.4 152.533 122.267 149.867 123.334 138.133C124.8 123.2 127.867 114.667 137.067 100.8C145.867 87.6001 147.334 82.9334 146.4 72.5334C144.4 52.4 121.2 42.1334 101.334 52.4L93.6002 56.4L92.6669 49.0667C91.8669 42.6667 91.0669 41.0667 85.8669 36.1334C78.6669 29.2 78.4002 25.8667 84.6669 22C88.5335 19.6001 89.3335 18.2667 89.3335 14.5334C89.3335 10.2667 89.0669 10 84.8002 10C80.9335 10 80.2669 9.46672 79.2002 5.60005C78.1336 2.13338 77.2002 1.20004 73.7336 0.93338C70.0002 0.533386 69.4669 1.06671 68.0002 5.20004ZM42.0002 59.3334C55.0669 65.6 64.2669 78 66.0002 91.3334C67.4669 102 67.8669 103.067 71.3335 103.867C76.8002 105.2 80.0002 102.667 80.0002 96.8C80.0002 77.7334 99.3335 56.6667 116.667 56.6667C129.467 56.6667 137.334 63.7334 137.334 75.2C137.334 84.9334 126.534 103.067 116.667 109.867C112.8 112.4 110.4 112.933 102.534 112.933C97.3335 112.8 88.6669 112.133 83.2002 111.333C76.2669 110.267 70.5335 110.267 63.6002 111.2C53.6002 112.667 45.2002 113.2 37.3335 112.8C33.4669 112.667 31.3335 111.2 24.6669 104.267C10.8002 89.7334 6.00021 74.9334 11.8669 65.2C16.9335 56.9334 31.2002 54.1334 42.0002 59.3334ZM103.867 134.533C106.4 135.333 108.667 136.667 108.934 137.6C110.134 141.067 104.667 141.733 88.9335 140.4C78.2669 139.467 68.4002 139.467 57.7335 140.4C42.5335 141.733 37.3335 141.067 37.3335 137.867C37.3335 135.467 44.5335 133.733 58.0002 132.8C74.0002 131.6 97.6002 132.533 103.867 134.533Z" fill="black"/>
<path d="M24.4003 63.4667C19.067 65.0667 14.667 70.5334 14.667 75.7334C14.667 81.8667 19.7337 91.2001 27.3337 98.8001C33.3337 104.8 34.8003 105.6 41.3337 106.4C49.467 107.333 58.4003 105.733 60.267 103.067C63.067 98.9334 58.667 82.8001 52.667 74.8001C45.3337 65.4667 33.867 60.8001 24.4003 63.4667Z" fill="black"/>
<path d="M111.067 63.3334C98.9333 66.1334 89.0667 78.4001 86.5333 93.7334C84.8 104.533 86.9333 106.267 100.667 106.267C110.533 106.267 110.933 106.133 117.067 101.067C125.333 94.1334 132 83.0667 132 76.2667C132 72.4001 131.067 70.1334 128.133 67.2001C126 65.0667 123.067 63.3334 121.6 63.3334C120.133 63.3334 118.133 63.0667 117.067 62.8001C116.133 62.5334 113.333 62.8001 111.067 63.3334Z" fill="black"/>
</svg>
