<svg width="148" height="161" viewBox="0 0 148 161" fill="none" xmlns="http://www.w3.org/2000/svg">
<path d="M69.3334 5.20003C67.7334 8.93336 66.5334 9.86668 63.0667 10.2667C59.2001 10.6667 58.6667 11.2 58.2667 14.9334C57.8667 18.8 58.4001 19.4667 63.2001 22C69.4667 25.0667 70.6667 30.1334 66.0001 32.6667C60.6667 35.4667 55.3334 44.6667 55.3334 50.9334C55.3334 56.2667 53.8667 58.2667 52.1334 55.4667C50.1334 52.4 38.9334 48.6667 31.4667 48.6667C15.2001 48.6667 3.86673 57.6 1.46673 72.1334C-0.133275 81.0667 1.73339 86.5334 11.3334 101.333C20.6667 115.733 22.5334 120.667 24.5334 137.467C25.2001 142.667 26.4001 148.133 27.2001 149.6C29.2001 153.6 38.5334 157.467 50.2667 159.333C64.2667 161.6 98.6667 160.4 108.533 157.333C119.467 154 122.667 150 123.733 138.667C125.2 124.133 128 115.867 135.2 104.933C144.133 91.2 147.333 83.8667 147.333 76.4C147.333 68.4 145.6 63.7334 140.267 58.2667C130 47.4667 115.333 45.0667 102 52.1334C98.0001 54.2667 94.2667 56.1334 93.7334 56.4C93.0667 56.6667 92.6667 53.4667 92.6667 49.3334C92.6667 42.2667 92.4001 41.6 86.6667 36.1334C79.3334 28.9334 79.0667 25.8667 85.3334 22C89.2001 19.6 90.0001 18.2667 90.0001 14.5334C90.0001 10.2667 89.7334 10 85.4667 10C81.4667 10 80.6667 9.46669 79.3334 5.33336C78.1334 1.73335 77.0667 0.666687 74.5334 0.666687C72.0001 0.666687 70.6667 1.73335 69.3334 5.20003ZM78.5334 40.8C82.4001 42.5334 84.6667 48.1334 84.6667 55.4667C84.6667 60.5334 77.3334 76.6667 74.6667 77.6C73.8667 77.8667 71.3334 74.5334 68.9334 70.1334C62.4001 58.1334 63.0667 43.6 70.4001 40.6667C74.4001 39.0667 74.6667 39.0667 78.5334 40.8ZM42.5334 60C55.7334 66.2667 68.1334 83.4667 68.9334 96.6667L69.3334 102.667L62.0001 104.133C58.0001 104.933 48.2667 106 40.4001 106.533L26.0001 107.467L19.8667 99.0667C9.46673 84.9334 7.60006 77.2 12.6667 67.4667C14.9334 62.9334 17.7334 60.8 26.0001 57.4667C29.2001 56.2667 37.2001 57.4667 42.5334 60ZM126.8 59.2C133.333 62.1334 137.6 67.7334 138.8 74.9334C139.867 81.4667 137.467 87.4667 129.2 98.6667L122.933 107.2L114.8 106.667C110.267 106.267 102.133 105.733 96.5334 105.333C90.9334 105.067 84.6667 104.133 82.6667 103.333C79.2001 102 79.0667 101.467 79.7334 95.8667C80.6667 87.2 87.7334 73.6 94.4001 67.8667C101.333 61.8667 112 56.6667 117.333 56.6667C119.6 56.6667 123.733 57.8667 126.8 59.2ZM97.7334 114.667C108.267 115.6 117.2 116.8 117.6 117.067C118.267 117.733 115.867 135.2 115.067 136C114.8 136.267 110.533 135.467 105.333 134.267C88.9334 130.533 51.6001 131.467 36.0001 136C33.6001 136.8 33.2001 135.867 31.7334 127.067C30.9334 121.733 30.4001 117.2 30.5334 116.933C30.8001 116.8 38.1334 116 46.8001 115.2C55.4667 114.4 65.0667 113.2 68.0001 112.667C70.9334 112 74.5334 111.867 76.0001 112.133C77.4667 112.533 87.3334 113.6 97.7334 114.667ZM102.4 143.467C107.2 144.667 108.933 147.6 106 149.333C102.933 151.2 70.6667 152.533 58.1334 151.333C40.4001 149.6 37.0667 148 43.6001 144.533C49.7334 141.2 90.4001 140.533 102.4 143.467Z" fill="black"/>
</svg>
