<svg width="147" height="143" viewBox="0 0 147 143" fill="none" xmlns="http://www.w3.org/2000/svg">
<path d="M50.4057 42.1003C50.2853 41.7159 49.9789 41.416 49.6439 41.1859C49.2892 40.9422 48.8329 40.729 48.318 40.5457C47.2859 40.1783 45.9436 39.9052 44.5152 39.7691C44.5149 39.769 44.5147 39.769 44.5144 39.769L44.467 40.2667L50.4057 42.1003ZM50.4057 42.1003C50.4935 42.3254 50.4944 42.5682 50.4638 42.7873C50.431 43.0219 50.3555 43.2748 50.2532 43.535C50.0485 44.0559 49.7122 44.6667 49.2864 45.3224C48.4334 46.636 47.1809 48.1917 45.7664 49.6741C43.8255 51.8153 42.2527 53.2592 40.6874 54.1809C39.1056 55.1124 37.5566 55.4965 35.691 55.5662L50.4057 42.1003ZM61.389 5.51468L61.3869 5.51723L57.1202 10.7172L56.8748 11.0164L56.5236 10.8538L49.3236 7.52048L49.3223 7.51984C47.3563 6.60239 44.8531 5.74512 42.4252 5.11749C39.991 4.48824 37.6716 4.10007 36.067 4.10007H36.0562L36.0453 4.09961L30.4488 3.85628L30.7002 12.6525L30.7002 12.6548C30.8346 18.2982 30.497 22.4563 28.4593 28.7377C26.4312 34.9896 22.7168 43.352 16.1197 57.4125L16.1194 57.413C10.7838 68.7511 5.0654 81.9212 3.47715 86.9506L3.47725 86.9507L3.47397 86.9604C2.73935 89.1308 2.18483 90.7699 1.80079 92.0727C1.4161 93.3778 1.2126 94.3132 1.16611 95.0803C1.07681 96.5537 1.55532 97.4646 2.75428 99.3297L2.75894 99.3369L2.76334 99.3443C6.01907 104.814 10.8341 108.213 17.9342 110.185L17.9357 110.185C20.0543 110.781 21.7128 111.103 23.0247 111.167C24.3269 111.231 25.25 111.038 25.9362 110.642C26.76 110.095 27.5557 109.801 28.3341 110.142C28.7042 110.304 29.0157 110.589 29.2948 110.947C29.5741 111.305 29.8412 111.764 30.1142 112.31C30.472 113.025 31.0804 113.701 31.7976 114.231C32.5157 114.762 33.3103 115.123 34.0159 115.24L34.0206 115.241C34.9249 115.401 35.8362 115.124 37.2322 113.744C38.6418 112.351 40.4491 109.925 43.118 105.989C44.928 103.241 47.0708 100.362 49.0628 97.9175C51.047 95.4831 52.9044 93.4523 54.1438 92.4186C56.5808 90.3208 60.246 87.9692 63.4129 86.2601C64.9978 85.4047 66.474 84.7015 67.6222 84.2696C68.1935 84.0547 68.704 83.8991 69.1156 83.8303C69.3205 83.7961 69.5234 83.7794 69.7079 83.7976C69.8846 83.815 70.1118 83.871 70.2872 84.0465C70.4734 84.2327 70.5556 84.4742 70.5892 84.6981C70.623 84.9245 70.6142 85.1773 70.5797 85.4414C70.5107 85.9699 70.3268 86.6286 70.0564 87.3816C69.5134 88.8932 68.5884 90.8755 67.3922 93.1341C64.9974 97.6558 61.4854 103.341 57.6742 108.69L57.6743 108.69L57.6702 108.696C53.2748 114.69 48.8973 121.325 47.7117 123.562C46.9387 125.111 45.7186 129.055 44.684 132.994C44.1689 134.954 43.7044 136.896 43.3691 138.51C43.0926 139.841 42.911 140.918 42.8534 141.6C42.9991 141.614 43.1853 141.63 43.4129 141.645C44.0896 141.69 45.0934 141.733 46.393 141.773C48.9904 141.854 52.7492 141.925 57.39 141.983C66.6705 142.1 79.4683 142.167 93.5337 142.167H144.171L145.038 136.468C145.038 136.466 145.038 136.465 145.039 136.463C146.496 125.394 145.835 110.914 143.623 96.8109C141.411 82.7053 137.655 69.0282 132.954 59.558C121.255 36.2946 104.301 21.4006 87.0731 19.2964L87.0704 19.2961C85.5082 19.0966 84.2825 18.9271 83.3075 18.6995C82.3286 18.4709 81.5606 18.175 80.9318 17.6986C80.2982 17.2186 79.8462 16.5862 79.4457 15.7545C79.0499 14.9324 78.6905 13.8849 78.2588 12.5566C77.3547 9.84549 75.336 6.80719 73.1035 4.44339C71.9896 3.26398 70.8364 2.26736 69.7614 1.56944C68.6728 0.862625 67.7222 0.500076 67.0004 0.500076C66.8838 0.500076 66.6206 0.581161 66.1942 0.844299C65.791 1.09319 65.3099 1.46133 64.78 1.92601C63.7219 2.85391 62.508 4.13242 61.389 5.51468ZM42.5333 141.555C42.5336 141.555 42.534 141.555 42.5344 141.555L42.5333 141.555ZM88.8757 30.854L88.8765 30.8542C95.9511 32.963 104.162 39.6205 111.416 48.2449C118.683 56.8839 125.052 67.5721 128.409 77.8437C132.426 90.0292 134.834 105.282 134.834 118.533C134.834 123.348 134.335 126.968 133.342 129.234C132.844 130.37 132.197 131.221 131.371 131.682C130.526 132.155 129.569 132.176 128.56 131.802L128.556 131.801C126.936 131.184 125.933 129.795 125.33 127.231C124.732 124.685 124.5 120.866 124.5 115.2C124.5 102.718 121.308 84.518 117.338 74.8568L117.338 74.8561C113.761 66.1143 108.328 57.7981 102.1 51.0732C95.8682 44.344 88.8667 39.2361 82.1673 36.8716L82.1668 36.8714C80.5488 36.2983 79.1963 35.7042 78.1316 35.1095C77.0744 34.5191 76.2685 33.9106 75.7766 33.2958C75.281 32.6762 75.0475 31.9663 75.3501 31.2696C75.6304 30.6244 76.3094 30.1527 77.2078 29.8051C78.5946 29.1823 79.7136 28.8929 81.4137 29.0523C83.0711 29.2076 85.2858 29.7903 88.8757 30.854ZM9.74923 98.0933L9.73916 98.095L9.72904 98.0962C9.18325 98.1644 8.70078 98.1887 8.29516 98.1228C7.8747 98.0544 7.50244 97.8828 7.23738 97.5383C6.98531 97.2106 6.88022 96.7895 6.84359 96.3271C6.80665 95.8607 6.83538 95.2917 6.9028 94.6174C7.18976 91.6797 9.38877 89.1822 11.5042 88.0892C12.555 87.5463 13.6967 87.2929 14.6236 87.6352C15.6213 88.0037 16.167 88.9739 16.167 90.4001C16.167 92.2036 15.4122 93.9804 14.2507 95.3706C13.0897 96.7604 11.4891 97.8033 9.74923 98.0933Z" fill="black" stroke="black"/>
</svg>
