<svg width="146" height="143" viewBox="0 0 146 143" fill="none" xmlns="http://www.w3.org/2000/svg">
<path d="M61.9334 4.00008C60.0667 6.13341 58.3334 8.5334 58.0667 9.3334C57.8001 10.2667 55.0001 9.60007 50.6001 7.3334C46.8667 5.46674 40.6001 3.46674 36.8667 3.06674L30.0667 2.26674L31.0001 10.4001C32.0667 19.7334 30.2001 27.7334 23.1334 42.9334C10.6001 70.2667 5.1334 82.6667 3.1334 88.9334L0.733398 96.0001L4.60007 101.333C8.86673 107.333 15.8001 111.2 20.6001 110.267C22.8667 109.867 24.8667 110.667 27.1334 112.933C32.3334 118.133 36.6001 116.667 42.6001 108C45.4001 104 49.9334 98.4001 52.7334 95.6001C57.8001 90.2667 68.6001 83.2001 69.8001 84.4001C71.4001 86.0001 67.9334 93.2001 59.0001 106.667C49.2667 121.067 43.6667 133.2 43.6667 139.333V142.667H94.2001H144.733L145.667 132.933C146.867 120.4 144.467 94.4001 141 80.6667C135.933 61.0667 125 42.1334 112.067 30.6667C103.533 23.2001 96.8667 19.8667 88.2001 19.0667C81.5334 18.4001 81.0001 18.0001 79.5334 13.7334C77.6667 7.86674 70.7334 7.62939e-05 67.6667 7.62939e-05C66.3334 7.62939e-05 63.8001 1.73341 61.9334 4.00008ZM43.9334 12.8001L48.2001 14.9334L44.8667 16.8001C39.9334 19.6001 38.3334 19.0667 38.3334 14.6667C38.3334 10.0001 38.4667 10.0001 43.9334 12.8001ZM70.3334 17.0667C74.3334 29.8667 73.6667 29.3334 84.0667 29.3334C91.1334 29.3334 94.4667 30.0001 97.8001 32.1334C105.133 36.6667 117.267 51.0667 123.267 62.1334C131.933 78.4001 134.467 89.2001 135.267 112.933L136.067 133.2L95.8001 133.6C63.8001 133.867 55.6667 133.6 55.6667 132.267C55.6667 129.733 60.6001 120.533 67.5334 110C76.8667 96.0001 79.6667 88.8001 79.6667 78.6667C79.6667 75.3334 81.1334 67.7334 82.8667 61.8667C86.3334 50.2667 86.2001 47.3334 82.2001 49.3334C78.8667 51.2001 73.5334 60.6667 71.6667 68.0001C70.3334 73.3334 69.4001 74.5334 64.0667 77.3334C55.9334 81.6001 45.6667 91.2001 39.0001 100.533C33.2667 108.4 30.7334 109.333 31.4001 103.333C31.8001 99.8667 31.5334 99.7334 28.0667 100.533C17.9334 103.067 16.3334 102.933 12.6001 99.2001C9.66673 96.4001 9.00007 94.6667 9.66673 92.1334C10.0667 90.1334 16.0667 76.9334 22.8667 62.6667C29.6667 48.4001 36.0667 34.8001 37.0001 32.4001C38.3334 28.9334 40.0667 27.6001 45.9334 25.3334C57.6667 20.9334 63.6667 17.4667 65.2667 14.0001C67.1334 9.86674 68.3334 10.6667 70.3334 17.0667Z" fill="black"/>
<path d="M38.734 42.6667C34.334 45.3333 32.0673 50.2667 33.534 54C34.6006 56.9333 37.934 56.5333 44.6006 52.6667C50.0673 49.3333 53.0006 44.5333 51.0006 41.4667C49.6673 39.2 43.4006 39.7333 38.734 42.6667Z" fill="black"/>
<path d="M15.0003 87.4666C12.067 90.5333 13.0003 95.2 16.6003 95.7333C20.6003 96.2666 23.667 90.5333 21.0003 87.3333C18.867 84.8 17.667 84.8 15.0003 87.4666Z" fill="black"/>
</svg>
