<svg width="105" height="143" viewBox="0 0 105 143" fill="none" xmlns="http://www.w3.org/2000/svg">
<path d="M45.467 1.33341C35.2003 4.40007 30.0003 15.0667 33.3337 26.1334C35.067 31.8667 35.067 32.6667 33.2003 33.7334C28.0003 36.6667 22.0003 43.2001 20.5337 47.6001C17.3337 57.2001 21.467 70.9334 28.9337 75.2001L33.067 77.7334L28.5337 80.0001C21.7337 83.6001 11.7337 92.9334 8.00033 99.2001C3.60033 106.667 0.666992 119.867 0.666992 132.267V142.667H52.8003H105.067L104.267 128.933C103.867 121.467 102.534 112.267 101.334 108.533C98.1337 99.0667 90.8003 89.8667 81.3337 83.4667L73.2003 78.0001L78.8003 72.6667C85.067 66.6667 86.8003 61.0667 85.3337 51.3334C84.5337 45.3334 78.5337 37.4667 72.267 34.0001C70.0003 32.8001 70.0003 32.2667 72.0003 26.4001C77.6003 10.2667 62.8003 -3.73326 45.467 1.33341ZM56.8003 9.33341C59.2003 9.33341 63.3337 14.6667 63.3337 17.8667C63.3337 19.6001 62.1337 23.6001 60.8003 26.6667C59.3337 29.8667 58.5337 33.2001 58.9337 34.1334C59.2003 35.0667 61.867 37.3334 64.8003 39.3334C71.7337 43.8667 75.3337 49.8667 75.3337 57.0667C75.3337 63.0667 73.067 66.1334 63.6003 73.7334C59.7337 76.8001 61.3337 80.0001 69.7337 85.7334C86.9337 97.6001 93.867 108.133 95.067 124L95.7337 133.333H52.667H9.60033L10.267 124C11.467 107.867 17.467 99.0667 36.667 84.9334C44.4003 79.2001 44.9337 76.0001 38.667 71.0667C26.4003 61.6001 27.2003 48.6667 40.5337 39.2001C46.4003 34.9334 47.3337 31.3334 44.0003 25.3334C39.067 16.6667 45.067 6.53341 53.7337 8.80007C54.8003 9.06674 56.1337 9.33341 56.8003 9.33341Z" fill="black"/>
</svg>
