<svg width="106" height="143" viewBox="0 0 106 143" fill="none" xmlns="http://www.w3.org/2000/svg">
<path d="M42.0668 2.80007C33.0001 7.46674 29.9334 16.2667 33.5334 26.5334C34.7334 29.7334 35.5334 32.5334 35.4001 32.6667C35.1334 32.8001 32.7334 34.1334 30.0668 35.8667C21.1334 41.2001 17.1334 55.3334 21.5334 65.7334C22.4668 68.1334 25.2668 71.7334 27.6668 73.8667C31.1334 76.8001 31.6668 77.7334 30.2001 78.6667C23.5334 82.4001 13.9334 90.9334 10.4668 96.0001C4.2001 105.333 2.06676 112.667 1.4001 128.267L0.600098 142.667H53.0001H105.4L104.6 128.267C104.067 118.533 103 111.6 101 106.4C97.6668 97.4667 88.6001 86.8001 80.2001 81.8667C77.0001 80.0001 74.3334 78.1334 74.3334 77.7334C74.3334 77.3334 75.9334 75.8667 77.8001 74.2667C81.9334 71.0667 86.2001 62.2667 86.3334 56.8001C86.3334 49.7334 83.2668 42.6667 78.3334 38.1334C75.5334 35.7334 72.6001 33.4667 71.6668 33.0667C70.2001 32.6667 70.2001 31.6001 71.4001 28.0001C72.3334 25.6001 73.0001 21.0667 73.0001 17.8667C73.0001 4.00007 55.8001 -4.53326 42.0668 2.80007Z" fill="black"/>
</svg>
