<svg width="169" height="156" viewBox="0 0 169 156" fill="none" xmlns="http://www.w3.org/2000/svg">
<path d="M76.2669 3.06666C71.6002 6.66666 70.8002 12.1333 73.6002 21.0667C76.6669 30.8 76.5335 44.1333 73.4669 60L71.2002 72L68.1335 65.3333C61.7335 51.2 58.4002 38.9333 58.6669 30.6667C58.8002 26.2667 58.9335 21.0667 58.9335 19.0667C59.2002 10.4 49.3335 4.26666 40.8002 7.86666C35.2002 10.1333 33.2002 12.9333 32.4002 19.0667C31.8669 23.4667 32.2669 24.9333 35.8669 28.9333C41.8669 35.7333 42.6669 39.2 42.6669 56.4L42.5335 72L37.3335 66.2667C29.0669 57.0667 26.1335 49.8667 27.2002 40.9333C27.8669 34.6667 27.6002 32.5333 25.3335 28.9333C20.8002 21.6 13.7335 20.1333 6.66686 24.9333C-1.59981 30.5333 -1.19981 41.6 7.33353 48C11.0669 50.9333 11.7335 52.4 12.5335 59.3333C13.0669 63.6 15.2002 73.8667 17.2002 81.8667C20.5335 94.8 21.8669 97.6 27.7335 104.933C31.3335 109.6 35.3335 115.333 36.5335 117.733C38.6669 121.867 38.6669 122.4 35.3335 131.467C29.6002 147.467 30.6669 149.333 47.3335 153.6C60.1335 156.8 107.867 156.8 122.534 153.6C138.267 150.133 140.267 146.267 133.867 131.067C131.867 126.267 130.8 121.733 131.2 119.867C131.6 118.267 135.734 112.267 140.134 106.533C148 96.6667 148.4 95.7333 152.134 80.4C154.134 71.6 156.267 61.3333 156.667 57.4667C157.467 51.7333 158.267 50.2667 161.867 48C171.067 42 170.534 28.4 160.934 23.8667C155.067 21.0667 150.267 22.1333 145.067 27.4667C141.2 31.3333 141.067 31.7333 142 39.8667C142.8 47.3333 142.4 49.2 139.6 54.8C137.734 58.4 134.134 63.7333 131.467 66.6667L126.8 72L126.4 64C125.467 43.3333 127.2 34.9333 133.067 29.4667C143.067 20.5333 132.134 3.06666 119.334 7.33333C111.334 9.99999 110 12.8 110.4 26.1333C110.667 36.4 110.267 39.6 106.8 50C104.534 56.6667 101.6 64.2667 100.267 66.9333L97.7335 71.7333L95.6002 59.7333C92.8002 44.6667 92.6669 29.4667 95.3335 22C98.2669 13.7333 97.8669 8.26666 94.0002 4.13333C90.1335 -0.133341 81.2002 -0.666675 76.2669 3.06666ZM89.0669 8.93333C91.3335 11.2 91.0669 16 88.6669 18C83.6002 22.1333 75.8669 14.4 80.0002 9.33333C82.0002 6.93333 86.8002 6.66666 89.0669 8.93333ZM50.9335 17.2C54.0002 21.8667 50.9335 26.2667 45.2002 25.7333C41.3335 25.3333 40.6669 24.8 40.2669 21.3333C39.8669 18.8 40.5335 16.9333 42.1335 15.7333C44.6669 13.8667 49.3335 14.6667 50.9335 17.2ZM127.2 15.7333C128.8 16.9333 129.467 18.8 129.067 21.3333C128.8 24.5333 128 25.4667 124.934 25.7333C117.734 26.5333 114.667 20 120.267 16.1333C123.867 13.6 124.267 13.6 127.2 15.7333ZM18.4002 31.6C20.6669 33.8667 20.4002 38.6667 18.0002 40.6667C15.3335 42.9333 9.73353 41.3333 8.66686 38C6.8002 32.1333 14.1335 27.3333 18.4002 31.6ZM159.2 32.1333C161.734 34.5333 161.867 35.8667 160 39.4667C157.334 44.4 149.334 41.8667 149.334 36C149.334 30.4 155.2 28.1333 159.2 32.1333ZM122 96.8C125.734 98.1333 127.467 99.6 127.734 101.467L128.134 104.4L84.8002 104.267C43.4669 104.133 41.3335 104 41.3335 101.733C41.3335 96.1333 55.8669 94 90.0002 94.5333C108 94.9333 118.4 95.6 122 96.8ZM116.534 125.867C119.334 126.533 122.667 128.133 123.867 129.2C125.6 131.067 125.6 131.6 124 133.2C122.267 134.8 118.667 134.933 102.667 134.133C92.0002 133.467 75.3335 133.467 65.4669 134.133C48.0002 135.333 44.0002 134.667 44.0002 131.2C44.0002 129.067 51.6002 126.133 60.1335 124.8C70.2669 123.2 109.067 124 116.534 125.867Z" fill="black"/>
</svg>
