<svg width="168" height="157" viewBox="0 0 168 157" fill="none" xmlns="http://www.w3.org/2000/svg">
<path d="M74.5333 4.53331C70.1333 9.06664 69.7333 12.5333 72.8 20.8C75.6 28.4 75.6 47.2 72.6667 60.5333C71.6 66 70.4 70.6666 70.1333 70.9333C69.4667 71.6 61.4667 50.8 59.3333 42.4C57.8667 36.9333 57.4667 31.8666 58.1333 25.2C58.9333 16.5333 58.6667 15.6 55.4667 11.7333C47.0667 1.73331 32 6.9333 32 20C32 24.6666 32.8 26.8 36.1333 30.5333C38.2667 33.0666 40.6667 37.2 41.4667 39.6C42.8 44.5333 43.0667 58.8 41.8667 66.4L40.9333 71.4666L37.2 67.0666C28.4 57.0666 26.1333 51.4666 26.4 41.6C26.6667 30.9333 24.5333 25.7333 18.8 23.3333C10.1333 19.8666 0 26.8 0 36.2666C0 40 1.06667 42.1333 5.2 46.2666C9.46667 50.4 10.8 53.0666 12 59.0666C12.8 63.2 15.0667 73.7333 16.9333 82.5333C20.1333 96.8 21.0667 98.8 26 104.533C38.1333 118.133 38.9333 120.667 34.8 130.267C31.0667 138.933 30.1333 146.133 32.4 149.2C35.2 153.067 48.8 155.333 75.3333 156.267C100.667 157.067 123.467 155.333 131.6 152C136.133 150.133 136.667 148.667 136 140C135.867 137.867 134.533 133.867 133.2 131.067C128.533 121.867 129.467 119.2 142.133 103.6C147.867 96.6666 150.8 87.0666 155.333 61.4666C156.8 53.0666 157.6 51.3333 162.667 46.2666C167.867 41.0666 168.267 40.2666 167.6 35.2C166.267 24.9333 156 19.0666 148.267 24.1333C142.267 28 141.333 30.1333 141.467 40.1333C141.733 50.6666 139.467 56.2666 131.6 65.7333C127.2 70.9333 126.933 71.0666 126.133 68.2666C124.8 63.2 125.2 44 126.8 39.2C127.733 36.6666 130.133 32.2666 132.133 29.4666C137.2 22.5333 137.2 16.6666 132.267 11.2C129.067 7.73331 127.467 6.93331 122.667 6.93331C117.733 6.93331 116.267 7.59998 112.933 11.3333C109.2 15.6 109.067 16.1333 109.867 24.6666C110.8 35.0666 107.867 48.5333 101.6 62.8C97.0667 72.9333 97.2 72.9333 94 54.8C91.3333 39.3333 91.4667 35.2 94.8 22.6666C97.0667 14 97.2 11.6 95.8667 8.39998C92.2667 -0.266691 81.3333 -2.26669 74.5333 4.53331ZM89.0667 12.1333C89.6 17.2 86.6667 20 82 18.8C79.3333 18.1333 78.6667 17.2 78.6667 13.4666C78.6667 7.99998 79.6 7.06664 84.6667 7.59998C88 7.99998 88.6667 8.66664 89.0667 12.1333ZM48.5333 15.7333C50.1333 16.9333 50.8 18.8 50.4 21.3333C50.1333 24.6666 49.3333 25.4666 46 25.7333C43.4667 26.1333 41.6 25.4666 40.4 23.8666C38.1333 20.6666 38.1333 19.8666 41.3333 16.6666C44.5333 13.4666 45.3333 13.4666 48.5333 15.7333ZM125.867 15.7333C127.467 16.9333 128.133 18.8 127.733 21.3333C127.333 24.9333 126.8 25.3333 122.8 25.3333C116.933 25.3333 114.667 20.6666 118.667 16.6666C121.733 13.6 122.667 13.4666 125.867 15.7333ZM17.0667 31.6C19.7333 34.2666 19.0667 40.4 16 41.3333C11.0667 42.9333 8 40.9333 8 36C8 33.6 8.8 31.2 9.73333 30.9333C12.6667 29.7333 15.4667 30 17.0667 31.6ZM158.4 31.6C162 35.2 159.333 42 154.533 42C151.733 42 148 38.5333 148 36C148 31.3333 155.067 28.2666 158.4 31.6ZM53.3333 50.9333C53.3333 54.1333 61.3333 69.6 66.2667 76L71.0667 82.4L73.4667 79.2C76.2667 75.6 82.6667 56.8 82.6667 52.1333C82.6667 44.9333 84.6667 48.1333 87.4667 59.7333C90.4 72 95.2 82.6666 97.3333 81.3333C99.8667 79.7333 108.4 65.6 112.667 56L117.333 45.3333V54C117.333 63.0666 120.4 84.1333 121.867 85.6C122.267 86 128.133 80.9333 134.8 74.1333C141.467 67.4666 146.533 63.0666 146.133 64.2666C145.733 65.6 144.4 71.2 143.2 76.6666C141.2 86.1333 138.133 94 136.533 94C136.267 94 133.467 92.6666 130.4 91.2C110.4 80.9333 61.6 80.8 39.0667 90.8C33.6 93.2 31.2 93.6 29.8667 92.5333C28.9333 91.8666 26.9333 85.6 25.3333 78.9333C23.8667 72.1333 22.2667 65.7333 21.8667 64.4C21.4667 63.2 26.6667 67.7333 33.3333 74.4C40 80.9333 45.7333 86 46.1333 85.6C47.6 84.1333 50.6667 63.0666 50.6667 54C50.6667 47.8666 51.0667 45.8666 52 47.3333C52.6667 48.4 53.3333 50.1333 53.3333 50.9333ZM96 92.6666C104.4 93.4666 113.733 94.6666 116.667 95.4666C121.733 96.8 126.667 100 126.667 102C126.667 102.4 107.467 102.8 84 102.933C60.5333 102.933 41.3333 102.533 41.3333 101.867C41.3333 100.133 47.0667 96.6666 52.6667 95.0666C55.6 94.2666 62.8 93.2 68.6667 92.6666C74.5333 92.1333 79.6 91.6 80 91.6C80.4 91.4666 87.6 92 96 92.6666ZM113.6 112.267C122.533 113.067 122.667 113.067 121.6 116.533C121.067 118.4 120.667 121.867 120.8 124V128.133L114.133 127.2C110.4 126.667 96.8 126.133 84 126.133C71.2 126.133 57.6 126.667 53.8667 127.2L47.2 128.133V124C47.3333 121.867 46.8 118.4 46.2667 116.4C45.3333 112.933 45.4667 112.8 51.6 112.267C63.0667 111.467 104.533 111.333 113.6 112.267ZM118.267 136.667C123.6 138.533 124.8 141.467 121.067 143.467C114.133 147.2 63.8667 147.867 50.4 144.533C45.2 143.2 43.4667 139.333 46.9333 137.2C52 134 109.733 133.6 118.267 136.667Z" fill="black"/>
</svg>
