<svg width="123" height="143" viewBox="0 0 123 143" fill="none" xmlns="http://www.w3.org/2000/svg">
<path d="M6.93366 3.73335C3.60033 7.20001 3.33366 8.40002 3.33366 18.2667V29.0667L13.867 38.2667L24.5337 47.3334V72L24.667 96.6667L12.667 108.667L0.666992 120.667V130C0.666992 135.6 1.33366 140.133 2.26699 141.067C3.46699 142.267 18.267 142.667 60.667 142.667C126.4 142.667 122 143.6 122 129.867V122L109.334 109.067L96.667 96.1334V72.2667V48.2667L107.334 39.2L118 30V18.5333C118 7.86668 117.734 6.93335 114.267 3.60002C110.934 0.400024 109.6 1.52588e-05 100.534 1.52588e-05C89.3337 1.52588e-05 84.267 2.66669 85.6003 8.00002C86.267 10.2667 85.7337 10.6667 82.1337 10.6667C78.667 10.6667 78.0003 10.1333 78.0003 7.60002C78.0003 1.60002 74.267 1.52588e-05 60.4003 1.52588e-05C46.667 1.52588e-05 43.3337 1.60002 43.3337 7.73335C43.3337 10 42.5337 10.6667 40.0003 10.6667C37.3337 10.6667 36.667 10 36.667 7.60002C36.667 1.86668 32.8003 1.52588e-05 21.2003 1.52588e-05C11.2003 1.52588e-05 10.267 0.266678 6.93366 3.73335ZM28.667 13.7334C28.667 18.5333 31.2003 20 39.467 20C49.6003 20 51.3337 19.2 51.3337 14.5334V10.6667H60.667C69.467 10.6667 70.0003 10.8 70.0003 13.7334C70.0003 18.6667 72.5337 20 82.267 20C90.0003 20 91.467 19.6 92.667 17.2C93.6003 15.7334 93.867 13.6 93.467 12.5334C92.9337 11.0667 94.4003 10.6667 100.534 10.6667C109.467 10.6667 110 11.3333 110 21.0667C110 27.0667 109.734 27.6 102 33.6L94.1337 40H61.067H28.0003L20.0003 33.6C12.1337 27.2 12.0003 26.9333 12.0003 20.5333C12.1337 16.9333 12.5337 13.2 13.2003 12.2667C13.7337 11.3333 17.067 10.6667 21.467 10.6667C28.1337 10.6667 28.667 10.9333 28.667 13.7334ZM88.667 70.6667V92L61.2003 91.7334L33.867 91.3334L33.6003 70.2667L33.3337 49.3334H61.067H88.667V70.6667ZM97.6003 106.933C101.467 110.8 104.667 114.267 104.667 114.667C104.667 115.067 85.067 115.2 61.067 114.933L17.467 114.533L24.667 107.333L31.867 100H61.2003H90.5337L97.6003 106.933ZM114 128.667V133.333H61.3337H8.66699V128.667V124H61.3337H114V128.667Z" fill="black"/>
</svg>
