<svg width="122" height="142" viewBox="0 0 122 142" fill="none" xmlns="http://www.w3.org/2000/svg">
<path d="M9.26682 4.06671C6.06682 7.40005 5.66682 8.7334 5.66682 17.8001V27.8001L15.6668 37.6667L25.6668 47.5334V71.0001V94.3334L13.0002 107L0.333484 119.667V128.467C0.333484 142.6 -4.06652 141.667 61.2668 141.667C126.2 141.667 121.667 142.733 121.667 128.2V119.667L109.667 107.667L97.6668 95.6667V71.6667V47.5334L107 38.3334L116.333 29.1334V17.6667C116.333 7.40005 116.067 5.80005 113.267 3.26672C110.733 0.866714 108.6 0.333389 100.867 0.333389C90.8668 0.333389 88.3335 1.53339 88.3335 6.60005C88.3335 9.26672 87.6668 9.66672 83.6668 9.66672C79.6668 9.66672 79.0002 9.26672 79.0002 6.60005C79.0002 1.13339 76.7335 0.333389 61.6668 0.333389C46.6002 0.333389 44.3335 1.13339 44.3335 6.60005C44.3335 9.26672 43.6668 9.66672 39.6668 9.66672C36.0668 9.66672 35.0002 9.13339 35.0002 7.26672C35.0002 2.46672 30.7335 0.333389 21.5335 0.333389C13.8002 0.333389 12.4668 0.733383 9.26682 4.06671ZM88.3335 50.3334V55.0001L61.4002 54.7334L34.3335 54.3334L33.9335 49.9334L33.5335 45.6667H60.8668H88.3335V50.3334ZM88.3335 93.6667V97.6667H61.0002H33.6668V93.6667V89.6667H61.0002H88.3335V93.6667Z" fill="black"/>
</svg>
